<?xml version="1.0" encoding="UTF-8" standalone="no"?>
<!-- Created with Inkscape (http://www.inkscape.org/) -->

<svg
   width="99.311386mm"
   height="40.992352mm"
   viewBox="0 0 99.311386 40.992352"
   version="1.1"
   id="svg1"
   xml:space="preserve"
   xmlns:inkscape="http://www.inkscape.org/namespaces/inkscape"
   xmlns:sodipodi="http://sodipodi.sourceforge.net/DTD/sodipodi-0.dtd"
   xmlns="http://www.w3.org/2000/svg"
   xmlns:svg="http://www.w3.org/2000/svg"><sodipodi:namedview
     id="namedview1"
     pagecolor="#ffffff"
     bordercolor="#000000"
     borderopacity="0.25"
     inkscape:showpageshadow="2"
     inkscape:pageopacity="0.0"
     inkscape:pagecheckerboard="0"
     inkscape:deskcolor="#d1d1d1"
     inkscape:document-units="mm" /><defs
     id="defs1" /><g
     inkscape:label="Layer 1"
     inkscape:groupmode="layer"
     id="layer1"
     transform="translate(-96.604609,-51.038466)"><path
       style="fill:#ae7500;fill-opacity:1"
       d="m 114.76657,91.482517 c -7.47241,-1.6251 -13.54241,-7.44675 -15.604508,-14.96607 -0.64844,-2.3645 -0.66258,-7.68411 -0.0267,-10.03886 1.593088,-5.89925 5.554658,-10.75685 10.904328,-13.37069 11.56852,-5.652362 26.43448,0.621631 29.12825,14.65074 2.06307,10.74442 -5.13683,21.43731 -15.98218,23.73585 -2.18956,0.46405 -6.25939,0.45875 -8.4192,-0.011 z m 7.64995,-0.79273 c 6.00665,-1.04748 11.45136,-5.12991 14.08746,-10.56277 1.4832,-3.05678 2.00111,-5.31473 1.99809,-8.71111 -0.008,-8.80863 -5.42171,-16.02795 -14.0519,-18.73792 -2.84747,-0.89414 -7.97601,-0.89441 -10.83859,-5.7e-4 -6.91029,2.15772 -11.80198,7.27772 -13.55465,14.18725 -0.748845,2.95217 -0.565935,7.87348 0.39557,10.6434 1.10476,3.18256 2.4558,5.30896 4.93034,7.75982 3.05631,3.02707 6.11061,4.64788 10.21311,5.41974 2.4981,0.47 4.13481,0.47051 6.82057,0.002 z m -6.15911,-8.43246 c -4.36544,-1.18841 -7.48031,-4.63713 -8.25182,-9.13624 -0.81624,-4.75993 1.78678,-10.015506 6.39974,-11.91237 3.50816,-1.442565 6.01891,-1.123201 9.55295,0.17131 6.82952,3.35969 8.37389,12.55922 3.00901,17.9241 -2.78219,2.78219 -7.03271,3.95425 -10.70988,2.9532 z m 6.40782,-1.22252 c 2.04545,-0.7653 3.78097,-2.16745 4.98114,-4.02435 2.68941,-4.16104 1.94701,-9.77056 -1.73893,-13.1393 -5.08556,-4.64792 -13.26622,-2.94995 -16.22885,3.36843 -0.61456,1.31067 -0.69722,1.81633 -0.69722,4.26509 0,2.53596 0.0676,2.91599 0.77538,4.35985 2.37817,4.85132 7.87573,7.05328 12.90848,5.17028 z"
       id="path3"
       sodipodi:nodetypes="cscssscccscssssssccssscssssssscs"
       inkscape:export-filename="path4.svg"
       inkscape:export-xdpi="96"
       inkscape:export-ydpi="96" /><path
       id="path1-2"
       style="fill:#ae7200;fill-opacity:1;stroke:none;stroke-width:0.22687;stroke-dasharray:none;stroke-opacity:1"
       d="m 106.48687,51.51067 c -0.13057,0.13185 -0.35114,2.49558 -0.48945,5.25246 -0.25119,5.00555 -0.19073,5.45167 1.02556,7.61375 0.44941,0.79891 0.58621,1.91463 0.64831,5.22577 -9.9e-4,0.0101 -0.002,0.02 -0.004,0.0299 0.002,0.006 0.004,0.0279 0.006,0.036 4.7e-4,0.0503 0.003,0.0792 0.004,0.13119 9.9e-4,0.0333 -0.008,-0.0619 -0.0141,-0.13187 -0.007,0.0573 -0.0176,0.12633 -0.0227,0.17885 -0.22404,2.3088 -0.4289,5.11953 -0.63692,7.48757 -0.97933,11.14738 -1.32467,14.8072 1.03305,14.35397 1.03681,-0.19931 1.5782,-2.01876 1.56728,-5.26698 -0.009,-2.58529 -1.08408,-16.75891 -1.08403,-17.39677 1e-5,-0.39082 -0.009,-0.69213 -0.0216,-0.95084 0.006,-0.10145 0.0174,-0.18872 0.021,-0.29828 0.0594,-1.68518 0.19835,-2.23547 1.07763,-3.9484 0,0 0.90864,-1.47912 1.02155,-1.99006 0.13258,-0.59989 -0.10902,-4.78841 -0.10902,-4.78841 -0.12293,-5.39365 -0.14289,-5.66957 -0.40611,-5.6014 -0.10382,0.0269 -0.22169,2.22815 -0.26202,4.89129 -0.0812,5.36181 -0.12094,5.83004 -0.46453,5.5314 -0.1305,-0.1134 -0.21465,-2.50216 -0.18752,-5.3085 0.0271,-2.80634 -0.0783,-5.10793 -0.23424,-5.11513 -0.15587,-0.007 -0.2897,0.19968 -0.29748,0.46033 -0.008,0.26054 -0.047,2.56017 -0.087,5.11011 -0.04,2.54994 -0.12744,4.74346 -0.1946,4.87428 -0.38486,0.74969 -0.50862,-0.65533 -0.45768,-5.19996 0.0492,-4.39153 -0.10095,-6.03936 -0.48269,-5.29567 -0.0527,0.10281 -0.11803,2.44817 -0.14436,5.21223 -0.0267,2.76406 -0.1166,5.15806 -0.19977,5.32013 -0.42123,0.82054 -0.53505,-0.52032 -0.45528,-5.35148 0.0482,-2.918 -0.019,-5.19758 -0.1496,-5.0657 z m 1.17625,18.15725 c 9.9e-4,-0.0116 0.003,-0.0246 0.005,-0.0353 -0.0105,-0.0552 -0.0101,-0.0325 -0.005,0.0353 z"
       sodipodi:nodetypes="ssscccccccsssccsscsssscsssssssssccc"
       inkscape:label="path1-2" /><path
       style="fill:#ae7200;fill-opacity:1;stroke:none;stroke-width:0.473;stroke-dasharray:none;stroke-opacity:1"
       d="m 99.197449,84.824827 c 0.0098,-4.416619 -0.205629,-6.558919 -0.682017,-6.78262 -1.580634,-0.742392 -1.890812,-2.195993 -1.910456,-8.953838 -0.02227,-7.656183 0.963532,-12.532213 3.219444,-15.924098 l 1.23876,-1.862548 0.0385,19.804941 c 0.0349,17.936023 -0.27004,22.113598 -1.507603,20.65729 -0.225976,-0.266017 -0.404463,-3.388551 -0.396612,-6.939127 z"
       id="path1"
       sodipodi:nodetypes="sssscsss" /><path
       style="fill:#b37200;fill-opacity:1;stroke:none;stroke-width:0.533;stroke-dasharray:none;stroke-opacity:1"
       d="m 136.11022,91.661165 c -0.48287,-0.262869 -0.68668,-3.359328 -0.69356,-10.537649 -0.01,-10.165429 -0.01,-10.165429 -1.57129,-11.844475 -1.35392,-1.455686 -1.58843,-2.039168 -1.76323,-4.38728 -0.39535,-5.308617 1.44246,-12.236104 3.61039,-13.609064 1.9601,-1.241403 4.53682,4.456472 4.92474,10.88989 0.23849,3.955635 -0.34475,6.136348 -2.03691,7.615638 -1.30472,1.140625 -1.32306,1.300283 -1.30814,11.399519 0.008,5.633486 -0.0958,10.378355 -0.23151,10.544173 -0.1356,0.165939 -0.55437,0.133926 -0.93049,-0.07071 z"
       id="path4"
       sodipodi:nodetypes="ssccssssss" /><text
       xml:space="preserve"
       style="font-style:normal;font-variant:normal;font-weight:normal;font-stretch:normal;font-size:19.4615px;font-family:Arial;-inkscape-font-specification:Arial;fill:#fdffff;fill-opacity:1;stroke:none;stroke-width:1.44965;stroke-dasharray:none;stroke-opacity:1"
       x="139.27461"
       y="70.0121"
       id="text14"
       transform="scale(1.0366121,0.96468101)"><tspan
         sodipodi:role="line"
         id="tspan14"
         style="font-size:19.4615px;fill:#fdffff;fill-opacity:1;stroke-width:1.44965"
         x="139.27461"
         y="70.0121">Grilli</tspan><tspan
         sodipodi:role="line"
         style="font-size:19.4615px;fill:#fdffff;fill-opacity:1;stroke-width:1.44965"
         x="139.27461"
         y="94.338974"
         id="tspan15" /></text><text
       xml:space="preserve"
       style="font-style:normal;font-variant:normal;font-weight:normal;font-stretch:normal;font-size:18.2215px;font-family:Arial;-inkscape-font-specification:Arial;fill:#ac7b00;fill-opacity:1;stroke:none;stroke-width:1.35728;stroke-dasharray:none;stroke-opacity:1"
       x="156.24741"
       y="82.464249"
       id="text16"
       transform="scale(0.92332978,1.0830367)"><tspan
         sodipodi:role="line"
         id="tspan16"
         style="fill:#ac7b00;fill-opacity:1;stroke-width:1.35728"
         x="156.24741"
         y="82.464249">Master</tspan></text></g></svg>





